<svg width="1280" height="532" viewBox="0 0 1280 532" fill="none" xmlns="http://www.w3.org/2000/svg">
<mask id="path-1-inside-1_87_4" fill="white">
<path fill-rule="evenodd" clip-rule="evenodd" d="M409.914 179.854L400.28 188.002L396.426 206.939L412.941 192.956L416.795 174.019L409.914 179.854V179.854ZM391.416 230.667L391.967 219.491L379.415 201.875L378.479 221.143L391.031 238.759L391.416 230.667ZM750.353 475.427L729.819 468.655L711.652 475.262C716.552 476.913 721.561 478.51 732.186 482.088L750.353 475.482V475.427ZM798.634 28.3516L777.054 30.0032C779.09 31.3795 791.422 40.3529 793.074 40.7933L814.654 39.1418C809.314 35.5634 803.974 31.9851 798.634 28.3516ZM758.501 0L772.925 17.011L794.615 22.1859L780.191 5.17486L758.501 0V0ZM774.356 458.911L781.458 460.122L764.447 469.316L743.142 465.628L760.153 456.434L774.356 458.911ZM800.836 441.46L788.284 440.524L772.264 451.314C775.017 451.534 792.138 453.406 793.789 452.966L809.809 442.176L800.836 441.515V441.46ZM785.256 436.065L769.236 446.855L775.842 426.266L791.862 415.475L785.256 436.065ZM836.014 419.494L814.434 420.981L800.12 433.918C807.332 433.422 814.489 432.927 821.7 432.431L836.014 419.494ZM810.8 416.962L796.487 429.899L800.065 408.594L814.379 395.602L810.8 416.907V416.962ZM859.026 393.73L837.886 398.299L825.609 413.163L846.749 408.649L859.081 393.785L859.026 393.73ZM833.757 394.831L821.425 409.695L821.921 388.06L834.252 373.196L833.757 394.776V394.831ZM874.715 367.635L858.035 372.92L847.189 388.941L867.779 382.389L878.624 366.369L874.715 367.635ZM853.575 369.948L842.73 385.913L841.189 364.332L852.034 348.367L853.575 369.948ZM894.424 335.595L874.991 345.064L866.568 362.461L886.001 352.992L894.424 335.595V335.595ZM870.146 342.697L861.723 360.093L857.099 339.009L865.522 321.612L870.146 342.752V342.697ZM892.993 312.529L888.203 315.502L881.542 333.614L899.929 322.328L906.59 304.216L892.993 312.584V312.529ZM883.138 313.63L876.422 293.095L869.761 311.207L876.477 331.742L883.138 313.63ZM907.086 276.029L897.452 284.122L893.543 303.06L910.059 289.132L913.967 270.194L907.086 276.029ZM892.167 283.076L888.258 302.014C885.01 295.573 881.817 289.132 878.569 282.691L882.478 263.753L892.167 283.076ZM916.885 235.621L915.894 254.89L901.636 271.13L902.627 251.862L916.885 235.621ZM897.287 251.586L896.296 270.855L883.799 253.238C883.303 251.586 884.68 236.778 884.79 233.915L897.287 251.586ZM907.416 214.151C902.186 221.528 903.562 218.39 904.168 230.942L904.553 238.814L917.05 221.198L916.114 201.93L907.361 214.206L907.416 214.151ZM898.222 219.767L884.019 203.471L884.955 222.739C885.616 224.336 897.231 236.833 899.158 239.035L898.222 219.767ZM906.205 175.67L910.279 167.577L914.132 186.515L904.388 205.838L900.535 186.901L906.205 175.67ZM895.25 188.002L899.103 206.939L882.588 192.956L878.734 174.019L895.25 188.002ZM898.167 142.694C892.937 156.292 892.662 153.264 894.864 160.366L899.048 173.798L906.755 153.594L901.03 135.152L898.167 142.639V142.694ZM888.148 156.953L870.311 144.731L876.037 163.173C881.487 166.917 887.652 171.156 893.873 175.395L888.148 156.953ZM884.735 112.361L886.717 103.552L895.084 120.949L890.405 142.033L882.037 124.637L884.735 112.361V112.361ZM877.193 127.004L857.759 117.535L866.127 134.932L885.561 144.401L877.193 127.004ZM868.605 83.4584L867.118 95.9552L877.138 112.416L879.725 90.9455L869.706 74.485L868.605 83.4584ZM862.494 98.7628L872.568 115.278L852.309 107.736L842.235 91.2758L862.494 98.8179V98.7628ZM847.905 50.7577C848.07 56.9235 848.235 63.0893 848.346 69.2551L860.677 84.1191L860.127 62.5388L847.795 47.6748V50.8128H847.85L847.905 50.7577ZM844.217 72.6683L856.548 87.5323L835.408 83.018L823.077 68.1541L844.217 72.6683V72.6683ZM822.802 23.7273L826.435 45.0323L840.748 57.9695L837.115 36.6645L822.802 23.7273V23.7273ZM822.802 49.0511L837.115 61.9883L815.535 60.5019L801.221 47.5647L822.802 49.0511ZM800.01 18.9378L794.945 3.24805L810.965 14.0382L817.572 34.6275C812.232 31.0492 806.892 27.4158 801.552 23.8374L799.955 18.9378H800.01ZM757.565 451.644L766.153 431.826L749.142 441.019L740.554 460.838L757.565 451.644ZM728.002 463.536L709.835 470.087L715.451 461.058L721.231 451.7L739.398 445.093L728.002 463.481V463.536ZM481.15 420.871L459.57 419.384L473.884 432.321C481.095 432.817 488.252 433.312 495.464 433.808L481.15 420.871ZM461.277 373.141L461.772 394.721L474.104 409.585L473.608 388.005L461.277 373.141ZM532.844 439.698L538.019 451.589L555.03 460.783L546.442 440.964L529.431 431.771L532.844 439.698ZM535.431 456.379L552.387 465.573L531.082 469.261L514.071 460.067L535.376 456.324L535.431 456.379ZM429.622 323.539C428.521 328.494 427.42 333.558 425.438 342.642L433.861 360.038L438.54 338.954L430.118 321.557L429.677 323.594L429.622 323.539ZM506.805 424.999L510.328 435.955L526.348 446.745L519.742 426.156L503.722 415.365L506.805 424.999ZM442.284 366.259L442.009 369.838L452.854 385.803L454.395 364.222L443.55 348.257L442.229 366.204L442.284 366.259ZM437.549 372.865L448.395 388.885L427.805 382.334L416.96 366.314L437.549 372.865ZM483.738 410.686L481.206 395.547L495.519 408.539L499.097 429.844L491.775 423.238C484.343 416.521 485.169 419.329 483.738 410.686V410.686ZM457.698 398.189L470.03 413.053L448.89 408.539L436.559 393.675L457.698 398.244V398.189ZM507.355 440.414L523.375 451.204L501.85 452.856L485.83 442.065L507.355 440.414ZM420.594 344.954L429.017 362.351L409.583 352.882L401.16 335.485L420.594 344.954ZM559.269 450.103L567.582 463.536L585.749 470.087L574.353 451.7L556.186 445.093L559.269 450.048V450.103ZM565.765 468.6L553.819 472.564L545.286 475.427L563.453 482.033L583.932 475.207L565.765 468.6ZM409.198 271.515C402.702 284.452 402.922 280.489 404.904 290.068L407.326 301.904L417.015 282.581L413.107 263.643L409.198 271.46V271.515ZM386.186 289.627L402.041 303.005L398.133 284.067L381.617 270.139C382.223 273.112 384.535 288.251 386.186 289.627ZM407.436 315.446L396.701 308.84L388.994 304.106C390.04 306.968 394.884 322.273 396.426 322.713C401.436 325.796 406.39 328.824 414.097 333.558L407.436 315.446ZM419.217 293.04L425.879 311.152L419.162 331.687L412.501 313.575L419.217 293.04ZM405.675 210.188L411.62 203.361L410.684 222.629C410.024 224.226 398.353 236.778 396.481 238.925C396.811 232.483 397.142 226.042 397.417 219.656L405.675 210.188ZM393.013 251.752L394.004 271.02L379.745 254.779L378.754 235.511L393.013 251.752ZM522.66 17.011L537.083 0L515.393 5.17486L500.969 22.1859L522.66 17.011V17.011ZM410.794 233.915L411.785 253.183L399.289 270.855L398.298 251.586L410.794 233.915ZM429.677 121.554C415.914 128.271 419.548 124.582 413.932 136.253L409.969 144.456L429.402 134.987L437.77 117.591L429.677 121.554V121.554ZM475.921 48.8859C471.021 49.2163 471.902 49.8769 467.332 53.9507L458.359 62.0433L479.939 60.5569L494.253 47.6198L475.866 48.8859H475.921ZM493.922 23.8925L500.529 3.3031L484.509 14.0932L477.902 34.6826L493.922 23.8925ZM428.411 96.0102L425.824 74.5401L415.749 91.0005L418.336 112.471L428.356 96.0102H428.411ZM469.149 45.0874L454.836 58.0245C455.331 55.1618 457.643 38.261 458.469 36.7195L472.783 23.7824L469.149 45.0874ZM453.294 91.2758L443.22 107.736L422.961 115.278L433.035 98.7628L453.294 91.2207V91.2758ZM425.163 144.731L419.438 163.173L401.601 175.395L403.913 167.908L407.326 157.008L425.163 144.786V144.731ZM413.492 124.692L405.069 142.089L400.39 121.004L408.812 103.607L413.492 124.692V124.692ZM447.129 69.2551L447.679 47.6198L435.347 62.4837L434.797 84.064L447.129 69.2V69.2551ZM394.995 186.901L391.141 205.838L381.397 186.515C381.177 184.809 384.535 171.101 385.25 167.577L394.995 186.901ZM463.589 70.0258L472.397 68.1541L460.066 83.018L438.926 87.5323L451.257 72.6683L463.589 70.0258ZM402.151 155.356L394.444 135.152L388.719 153.594L396.426 173.798L402.151 155.356V155.356ZM518.476 29.9481L502.456 40.7383L480.875 39.0867L496.895 28.2966L518.476 29.9481Z"/>
</mask>
<path fill-rule="evenodd" clip-rule="evenodd" d="M409.914 179.854L400.28 188.002L396.426 206.939L412.941 192.956L416.795 174.019L409.914 179.854V179.854ZM391.416 230.667L391.967 219.491L379.415 201.875L378.479 221.143L391.031 238.759L391.416 230.667ZM750.353 475.427L729.819 468.655L711.652 475.262C716.552 476.913 721.561 478.51 732.186 482.088L750.353 475.482V475.427ZM798.634 28.3516L777.054 30.0032C779.09 31.3795 791.422 40.3529 793.074 40.7933L814.654 39.1418C809.314 35.5634 803.974 31.9851 798.634 28.3516ZM758.501 0L772.925 17.011L794.615 22.1859L780.191 5.17486L758.501 0V0ZM774.356 458.911L781.458 460.122L764.447 469.316L743.142 465.628L760.153 456.434L774.356 458.911ZM800.836 441.46L788.284 440.524L772.264 451.314C775.017 451.534 792.138 453.406 793.789 452.966L809.809 442.176L800.836 441.515V441.46ZM785.256 436.065L769.236 446.855L775.842 426.266L791.862 415.475L785.256 436.065ZM836.014 419.494L814.434 420.981L800.12 433.918C807.332 433.422 814.489 432.927 821.7 432.431L836.014 419.494ZM810.8 416.962L796.487 429.899L800.065 408.594L814.379 395.602L810.8 416.907V416.962ZM859.026 393.73L837.886 398.299L825.609 413.163L846.749 408.649L859.081 393.785L859.026 393.73ZM833.757 394.831L821.425 409.695L821.921 388.06L834.252 373.196L833.757 394.776V394.831ZM874.715 367.635L858.035 372.92L847.189 388.941L867.779 382.389L878.624 366.369L874.715 367.635ZM853.575 369.948L842.73 385.913L841.189 364.332L852.034 348.367L853.575 369.948ZM894.424 335.595L874.991 345.064L866.568 362.461L886.001 352.992L894.424 335.595V335.595ZM870.146 342.697L861.723 360.093L857.099 339.009L865.522 321.612L870.146 342.752V342.697ZM892.993 312.529L888.203 315.502L881.542 333.614L899.929 322.328L906.59 304.216L892.993 312.584V312.529ZM883.138 313.63L876.422 293.095L869.761 311.207L876.477 331.742L883.138 313.63ZM907.086 276.029L897.452 284.122L893.543 303.06L910.059 289.132L913.967 270.194L907.086 276.029ZM892.167 283.076L888.258 302.014C885.01 295.573 881.817 289.132 878.569 282.691L882.478 263.753L892.167 283.076ZM916.885 235.621L915.894 254.89L901.636 271.13L902.627 251.862L916.885 235.621ZM897.287 251.586L896.296 270.855L883.799 253.238C883.303 251.586 884.68 236.778 884.79 233.915L897.287 251.586ZM907.416 214.151C902.186 221.528 903.562 218.39 904.168 230.942L904.553 238.814L917.05 221.198L916.114 201.93L907.361 214.206L907.416 214.151ZM898.222 219.767L884.019 203.471L884.955 222.739C885.616 224.336 897.231 236.833 899.158 239.035L898.222 219.767ZM906.205 175.67L910.279 167.577L914.132 186.515L904.388 205.838L900.535 186.901L906.205 175.67ZM895.25 188.002L899.103 206.939L882.588 192.956L878.734 174.019L895.25 188.002ZM898.167 142.694C892.937 156.292 892.662 153.264 894.864 160.366L899.048 173.798L906.755 153.594L901.03 135.152L898.167 142.639V142.694ZM888.148 156.953L870.311 144.731L876.037 163.173C881.487 166.917 887.652 171.156 893.873 175.395L888.148 156.953ZM884.735 112.361L886.717 103.552L895.084 120.949L890.405 142.033L882.037 124.637L884.735 112.361V112.361ZM877.193 127.004L857.759 117.535L866.127 134.932L885.561 144.401L877.193 127.004ZM868.605 83.4584L867.118 95.9552L877.138 112.416L879.725 90.9455L869.706 74.485L868.605 83.4584ZM862.494 98.7628L872.568 115.278L852.309 107.736L842.235 91.2758L862.494 98.8179V98.7628ZM847.905 50.7577C848.07 56.9235 848.235 63.0893 848.346 69.2551L860.677 84.1191L860.127 62.5388L847.795 47.6748V50.8128H847.85L847.905 50.7577ZM844.217 72.6683L856.548 87.5323L835.408 83.018L823.077 68.1541L844.217 72.6683V72.6683ZM822.802 23.7273L826.435 45.0323L840.748 57.9695L837.115 36.6645L822.802 23.7273V23.7273ZM822.802 49.0511L837.115 61.9883L815.535 60.5019L801.221 47.5647L822.802 49.0511ZM800.01 18.9378L794.945 3.24805L810.965 14.0382L817.572 34.6275C812.232 31.0492 806.892 27.4158 801.552 23.8374L799.955 18.9378H800.01ZM757.565 451.644L766.153 431.826L749.142 441.019L740.554 460.838L757.565 451.644ZM728.002 463.536L709.835 470.087L715.451 461.058L721.231 451.7L739.398 445.093L728.002 463.481V463.536ZM481.15 420.871L459.57 419.384L473.884 432.321C481.095 432.817 488.252 433.312 495.464 433.808L481.15 420.871ZM461.277 373.141L461.772 394.721L474.104 409.585L473.608 388.005L461.277 373.141ZM532.844 439.698L538.019 451.589L555.03 460.783L546.442 440.964L529.431 431.771L532.844 439.698ZM535.431 456.379L552.387 465.573L531.082 469.261L514.071 460.067L535.376 456.324L535.431 456.379ZM429.622 323.539C428.521 328.494 427.42 333.558 425.438 342.642L433.861 360.038L438.54 338.954L430.118 321.557L429.677 323.594L429.622 323.539ZM506.805 424.999L510.328 435.955L526.348 446.745L519.742 426.156L503.722 415.365L506.805 424.999ZM442.284 366.259L442.009 369.838L452.854 385.803L454.395 364.222L443.55 348.257L442.229 366.204L442.284 366.259ZM437.549 372.865L448.395 388.885L427.805 382.334L416.96 366.314L437.549 372.865ZM483.738 410.686L481.206 395.547L495.519 408.539L499.097 429.844L491.775 423.238C484.343 416.521 485.169 419.329 483.738 410.686V410.686ZM457.698 398.189L470.03 413.053L448.89 408.539L436.559 393.675L457.698 398.244V398.189ZM507.355 440.414L523.375 451.204L501.85 452.856L485.83 442.065L507.355 440.414ZM420.594 344.954L429.017 362.351L409.583 352.882L401.16 335.485L420.594 344.954ZM559.269 450.103L567.582 463.536L585.749 470.087L574.353 451.7L556.186 445.093L559.269 450.048V450.103ZM565.765 468.6L553.819 472.564L545.286 475.427L563.453 482.033L583.932 475.207L565.765 468.6ZM409.198 271.515C402.702 284.452 402.922 280.489 404.904 290.068L407.326 301.904L417.015 282.581L413.107 263.643L409.198 271.46V271.515ZM386.186 289.627L402.041 303.005L398.133 284.067L381.617 270.139C382.223 273.112 384.535 288.251 386.186 289.627ZM407.436 315.446L396.701 308.84L388.994 304.106C390.04 306.968 394.884 322.273 396.426 322.713C401.436 325.796 406.39 328.824 414.097 333.558L407.436 315.446ZM419.217 293.04L425.879 311.152L419.162 331.687L412.501 313.575L419.217 293.04ZM405.675 210.188L411.62 203.361L410.684 222.629C410.024 224.226 398.353 236.778 396.481 238.925C396.811 232.483 397.142 226.042 397.417 219.656L405.675 210.188ZM393.013 251.752L394.004 271.02L379.745 254.779L378.754 235.511L393.013 251.752ZM522.66 17.011L537.083 0L515.393 5.17486L500.969 22.1859L522.66 17.011V17.011ZM410.794 233.915L411.785 253.183L399.289 270.855L398.298 251.586L410.794 233.915ZM429.677 121.554C415.914 128.271 419.548 124.582 413.932 136.253L409.969 144.456L429.402 134.987L437.77 117.591L429.677 121.554V121.554ZM475.921 48.8859C471.021 49.2163 471.902 49.8769 467.332 53.9507L458.359 62.0433L479.939 60.5569L494.253 47.6198L475.866 48.8859H475.921ZM493.922 23.8925L500.529 3.3031L484.509 14.0932L477.902 34.6826L493.922 23.8925ZM428.411 96.0102L425.824 74.5401L415.749 91.0005L418.336 112.471L428.356 96.0102H428.411ZM469.149 45.0874L454.836 58.0245C455.331 55.1618 457.643 38.261 458.469 36.7195L472.783 23.7824L469.149 45.0874ZM453.294 91.2758L443.22 107.736L422.961 115.278L433.035 98.7628L453.294 91.2207V91.2758ZM425.163 144.731L419.438 163.173L401.601 175.395L403.913 167.908L407.326 157.008L425.163 144.786V144.731ZM413.492 124.692L405.069 142.089L400.39 121.004L408.812 103.607L413.492 124.692V124.692ZM447.129 69.2551L447.679 47.6198L435.347 62.4837L434.797 84.064L447.129 69.2V69.2551ZM394.995 186.901L391.141 205.838L381.397 186.515C381.177 184.809 384.535 171.101 385.25 167.577L394.995 186.901ZM463.589 70.0258L472.397 68.1541L460.066 83.018L438.926 87.5323L451.257 72.6683L463.589 70.0258ZM402.151 155.356L394.444 135.152L388.719 153.594L396.426 173.798L402.151 155.356V155.356ZM518.476 29.9481L502.456 40.7383L480.875 39.0867L496.895 28.2966L518.476 29.9481Z" stroke="#474A51" stroke-width="2" mask="url(#path-1-inside-1_87_4)"/>
<mask id="path-2-inside-2_87_4" fill="white">
<path fill-rule="evenodd" clip-rule="evenodd" d="M699.488 70.5758C696.9 70.5758 694.808 72.6678 694.808 75.2552C694.808 77.8427 696.9 79.9346 699.488 79.9346H782.506C785.093 79.9346 787.185 77.8427 787.185 75.2552C787.185 72.6678 785.093 70.5758 782.506 70.5758H699.488ZM592.963 27.0299C590.375 27.0299 588.283 29.1219 588.283 31.7093C588.283 34.2967 590.375 36.3887 592.963 36.3887H702.626C705.213 36.3887 707.305 34.2967 707.305 31.7093C707.305 29.1219 705.213 27.0299 702.626 27.0299H592.963V27.0299ZM475.923 114.122C473.335 114.122 471.243 116.214 471.243 118.801C471.243 121.389 473.335 123.481 475.923 123.481H525.139C527.726 123.481 529.818 121.389 529.818 118.801C529.818 116.214 527.726 114.122 525.139 114.122H475.923ZM607.662 114.122C605.074 114.122 602.982 116.214 602.982 118.801C602.982 121.389 605.074 123.481 607.662 123.481H635.518C638.105 123.481 640.197 121.389 640.197 118.801C640.197 116.214 638.105 114.122 635.518 114.122H607.662ZM687.927 114.122C685.34 114.122 683.248 116.214 683.248 118.801C683.248 121.389 685.34 123.481 687.927 123.481H819.666C822.253 123.481 824.345 121.389 824.345 118.801C824.345 116.214 822.253 114.122 819.666 114.122H687.927ZM455.058 157.668C452.471 157.668 450.379 159.76 450.379 162.347C450.379 164.935 452.471 167.026 455.058 167.026H525.084C527.671 167.026 529.763 164.935 529.763 162.347C529.763 159.76 527.671 157.668 525.084 157.668H455.058ZM607.662 157.668C605.074 157.668 602.982 159.76 602.982 162.347C602.982 164.935 605.074 167.026 607.662 167.026H625.168C627.755 167.026 629.847 164.935 629.847 162.347C629.847 159.76 627.755 157.668 625.168 157.668H607.662ZM758.779 157.668C756.191 157.668 754.099 159.76 754.099 162.347C754.099 164.935 756.191 167.026 758.779 167.026H840.53C843.118 167.026 845.21 164.935 845.21 162.347C845.21 159.76 843.118 157.668 840.53 157.668H758.779ZM445.479 201.214C442.892 201.214 440.8 203.306 440.8 205.893C440.8 208.48 442.892 210.572 445.479 210.572H525.084C527.671 210.572 529.763 208.48 529.763 205.893C529.763 203.306 527.671 201.214 525.084 201.214H445.479ZM607.662 201.214C605.074 201.214 602.982 203.306 602.982 205.893C602.982 208.48 605.074 210.572 607.662 210.572H641.849C644.436 210.572 646.528 208.48 646.528 205.893C646.528 203.306 644.436 201.214 641.849 201.214H607.662ZM750.025 201.214C747.438 201.214 745.346 203.306 745.346 205.893C745.346 208.48 747.438 210.572 750.025 210.572H850.109C852.697 210.572 854.789 208.48 854.789 205.893C854.789 203.306 852.697 201.214 850.109 201.214H750.025ZM445.534 244.76C442.947 244.76 440.855 246.852 440.855 249.439C440.855 252.026 442.947 254.118 445.534 254.118H500.916C503.504 254.118 505.596 252.026 505.596 249.439C505.596 246.852 503.504 244.76 500.916 244.76H445.534ZM758.063 244.76C755.475 244.76 753.384 246.852 753.384 249.439C753.384 252.026 755.475 254.118 758.063 254.118H850.109C852.697 254.118 854.789 252.026 854.789 249.439C854.789 246.852 852.697 244.76 850.109 244.76H758.063ZM455.058 288.305C452.471 288.305 450.379 290.397 450.379 292.985C450.379 295.572 452.471 297.664 455.058 297.664H606.34C608.928 297.664 611.02 295.572 611.02 292.985C611.02 290.397 608.928 288.305 606.34 288.305H455.058ZM661.447 288.305C658.86 288.305 656.768 290.397 656.768 292.985C656.768 295.572 658.86 297.664 661.447 297.664H684.459C687.046 297.664 689.138 295.572 689.138 292.985C689.138 290.397 687.046 288.305 684.459 288.305H661.447ZM767.972 288.305C765.385 288.305 763.293 290.397 763.293 292.985C763.293 295.572 765.385 297.664 767.972 297.664H840.53C843.118 297.664 845.21 295.572 845.21 292.985C845.21 290.397 843.118 288.305 840.53 288.305H767.972ZM475.868 331.851C473.28 331.851 471.188 333.943 471.188 336.531C471.188 339.118 473.28 341.21 475.868 341.21H571.603C574.19 341.21 576.282 339.118 576.282 336.531C576.282 333.943 574.19 331.851 571.603 331.851H475.868V331.851ZM805.793 331.851C803.205 331.851 801.113 333.943 801.113 336.531C801.113 339.118 803.205 341.21 805.793 341.21H819.666C822.253 341.21 824.345 339.118 824.345 336.531C824.345 333.943 822.253 331.851 819.666 331.851H805.793ZM513.028 375.397C510.44 375.397 508.348 377.489 508.348 380.077C508.348 382.664 510.44 384.756 513.028 384.756H582.118C584.705 384.756 586.797 382.664 586.797 380.077C586.797 377.489 584.705 375.397 582.118 375.397H513.028ZM641.298 375.397C638.711 375.397 636.619 377.489 636.619 380.077C636.619 382.664 638.711 384.756 641.298 384.756H736.923C739.51 384.756 741.602 382.664 741.602 380.077C741.602 377.489 739.51 375.397 736.923 375.397H641.298ZM592.908 418.943C590.32 418.943 588.228 421.035 588.228 423.623C588.228 426.21 590.32 428.302 592.908 428.302H702.571C705.158 428.302 707.25 426.21 707.25 423.623C707.25 421.035 705.158 418.943 702.571 418.943H592.908Z"/>
</mask>
<path fill-rule="evenodd" clip-rule="evenodd" d="M699.488 70.5758C696.9 70.5758 694.808 72.6678 694.808 75.2552C694.808 77.8427 696.9 79.9346 699.488 79.9346H782.506C785.093 79.9346 787.185 77.8427 787.185 75.2552C787.185 72.6678 785.093 70.5758 782.506 70.5758H699.488ZM592.963 27.0299C590.375 27.0299 588.283 29.1219 588.283 31.7093C588.283 34.2967 590.375 36.3887 592.963 36.3887H702.626C705.213 36.3887 707.305 34.2967 707.305 31.7093C707.305 29.1219 705.213 27.0299 702.626 27.0299H592.963V27.0299ZM475.923 114.122C473.335 114.122 471.243 116.214 471.243 118.801C471.243 121.389 473.335 123.481 475.923 123.481H525.139C527.726 123.481 529.818 121.389 529.818 118.801C529.818 116.214 527.726 114.122 525.139 114.122H475.923ZM607.662 114.122C605.074 114.122 602.982 116.214 602.982 118.801C602.982 121.389 605.074 123.481 607.662 123.481H635.518C638.105 123.481 640.197 121.389 640.197 118.801C640.197 116.214 638.105 114.122 635.518 114.122H607.662ZM687.927 114.122C685.34 114.122 683.248 116.214 683.248 118.801C683.248 121.389 685.34 123.481 687.927 123.481H819.666C822.253 123.481 824.345 121.389 824.345 118.801C824.345 116.214 822.253 114.122 819.666 114.122H687.927ZM455.058 157.668C452.471 157.668 450.379 159.76 450.379 162.347C450.379 164.935 452.471 167.026 455.058 167.026H525.084C527.671 167.026 529.763 164.935 529.763 162.347C529.763 159.76 527.671 157.668 525.084 157.668H455.058ZM607.662 157.668C605.074 157.668 602.982 159.76 602.982 162.347C602.982 164.935 605.074 167.026 607.662 167.026H625.168C627.755 167.026 629.847 164.935 629.847 162.347C629.847 159.76 627.755 157.668 625.168 157.668H607.662ZM758.779 157.668C756.191 157.668 754.099 159.76 754.099 162.347C754.099 164.935 756.191 167.026 758.779 167.026H840.53C843.118 167.026 845.21 164.935 845.21 162.347C845.21 159.76 843.118 157.668 840.53 157.668H758.779ZM445.479 201.214C442.892 201.214 440.8 203.306 440.8 205.893C440.8 208.48 442.892 210.572 445.479 210.572H525.084C527.671 210.572 529.763 208.48 529.763 205.893C529.763 203.306 527.671 201.214 525.084 201.214H445.479ZM607.662 201.214C605.074 201.214 602.982 203.306 602.982 205.893C602.982 208.48 605.074 210.572 607.662 210.572H641.849C644.436 210.572 646.528 208.48 646.528 205.893C646.528 203.306 644.436 201.214 641.849 201.214H607.662ZM750.025 201.214C747.438 201.214 745.346 203.306 745.346 205.893C745.346 208.48 747.438 210.572 750.025 210.572H850.109C852.697 210.572 854.789 208.48 854.789 205.893C854.789 203.306 852.697 201.214 850.109 201.214H750.025ZM445.534 244.76C442.947 244.76 440.855 246.852 440.855 249.439C440.855 252.026 442.947 254.118 445.534 254.118H500.916C503.504 254.118 505.596 252.026 505.596 249.439C505.596 246.852 503.504 244.76 500.916 244.76H445.534ZM758.063 244.76C755.475 244.76 753.384 246.852 753.384 249.439C753.384 252.026 755.475 254.118 758.063 254.118H850.109C852.697 254.118 854.789 252.026 854.789 249.439C854.789 246.852 852.697 244.76 850.109 244.76H758.063ZM455.058 288.305C452.471 288.305 450.379 290.397 450.379 292.985C450.379 295.572 452.471 297.664 455.058 297.664H606.34C608.928 297.664 611.02 295.572 611.02 292.985C611.02 290.397 608.928 288.305 606.34 288.305H455.058ZM661.447 288.305C658.86 288.305 656.768 290.397 656.768 292.985C656.768 295.572 658.86 297.664 661.447 297.664H684.459C687.046 297.664 689.138 295.572 689.138 292.985C689.138 290.397 687.046 288.305 684.459 288.305H661.447ZM767.972 288.305C765.385 288.305 763.293 290.397 763.293 292.985C763.293 295.572 765.385 297.664 767.972 297.664H840.53C843.118 297.664 845.21 295.572 845.21 292.985C845.21 290.397 843.118 288.305 840.53 288.305H767.972ZM475.868 331.851C473.28 331.851 471.188 333.943 471.188 336.531C471.188 339.118 473.28 341.21 475.868 341.21H571.603C574.19 341.21 576.282 339.118 576.282 336.531C576.282 333.943 574.19 331.851 571.603 331.851H475.868V331.851ZM805.793 331.851C803.205 331.851 801.113 333.943 801.113 336.531C801.113 339.118 803.205 341.21 805.793 341.21H819.666C822.253 341.21 824.345 339.118 824.345 336.531C824.345 333.943 822.253 331.851 819.666 331.851H805.793ZM513.028 375.397C510.44 375.397 508.348 377.489 508.348 380.077C508.348 382.664 510.44 384.756 513.028 384.756H582.118C584.705 384.756 586.797 382.664 586.797 380.077C586.797 377.489 584.705 375.397 582.118 375.397H513.028ZM641.298 375.397C638.711 375.397 636.619 377.489 636.619 380.077C636.619 382.664 638.711 384.756 641.298 384.756H736.923C739.51 384.756 741.602 382.664 741.602 380.077C741.602 377.489 739.51 375.397 736.923 375.397H641.298ZM592.908 418.943C590.32 418.943 588.228 421.035 588.228 423.623C588.228 426.21 590.32 428.302 592.908 428.302H702.571C705.158 428.302 707.25 426.21 707.25 423.623C707.25 421.035 705.158 418.943 702.571 418.943H592.908Z" stroke="#474A51" stroke-width="2" mask="url(#path-2-inside-2_87_4)"/>
<path d="M520.077 61.3328V72.5542H543.8H544.3V73.0542V241.898V242.398H543.8H520.077V253.674H612.72V242.398H588.997H588.497V241.898V73.1093V72.6093H588.997C590.879 72.6093 593.03 72.5676 595.356 72.5225C600.708 72.4187 606.988 72.297 613.047 72.6238C617.401 72.8586 621.667 73.3253 625.427 74.2016C629.18 75.0764 632.47 76.3683 634.839 78.2801C642.43 84.392 647.107 93.5209 650.119 101.554C651.627 105.576 652.722 109.338 653.556 112.327C653.695 112.827 653.827 113.305 653.952 113.758C654.202 114.663 654.425 115.47 654.629 116.168C654.936 117.223 655.186 117.981 655.399 118.419L655.4 118.421C656.306 120.314 657.047 121.482 658.017 122.216C658.972 122.938 660.214 123.287 662.236 123.367L662.24 123.368C664.398 123.471 665.885 122.774 666.97 121.546C668.078 120.29 668.802 118.438 669.312 116.174C669.82 113.917 670.103 111.314 670.374 108.597C670.4 108.333 670.426 108.067 670.453 107.801C670.695 105.344 670.944 102.819 671.358 100.439M520.077 61.3328L671.85 100.525M520.077 61.3328H643.829C648.389 61.3328 650.236 61.2928 652.158 60.9607C653.219 60.7773 654.316 60.5013 655.925 60.096C657.178 59.7806 658.742 59.3868 660.843 58.8974L660.843 58.8974C663.558 58.2636 666.149 57.6778 668.531 57.371C670.916 57.0638 673.05 57.0426 674.856 57.5113C676.645 57.9755 678.119 58.9215 679.209 60.5817C680.309 62.2565 681.043 64.6956 681.26 68.1831M520.077 61.3328L681.76 68.1546M671.358 100.439L671.85 100.525M671.358 100.439C671.357 100.44 671.357 100.44 671.357 100.441L671.85 100.525M671.358 100.439C672.413 94.2758 674.962 87.1732 677.203 81.1312C677.391 80.6243 677.577 80.125 677.759 79.6343C678.669 77.1912 679.498 74.9624 680.124 73.0781C680.499 71.9475 680.798 70.951 680.996 70.1146C681.196 69.2703 681.284 68.6256 681.26 68.1831M671.85 100.525C672.984 93.9037 675.862 86.1675 678.227 79.8113C680.227 74.4353 681.86 70.0466 681.76 68.1546M681.26 68.1831C681.26 68.184 681.26 68.1848 681.26 68.1857L681.76 68.1546M681.26 68.1831C681.26 68.1825 681.26 68.1819 681.26 68.1813L681.76 68.1546M644.329 154.305C645.718 154.298 647.221 154.263 648.789 154.227C652.685 154.137 656.989 154.038 660.986 154.328C663.896 154.539 666.681 154.958 669.069 155.748C671.455 156.537 673.484 157.71 674.833 159.455L674.833 159.455C676.219 161.249 676.929 163.606 677.181 166.214C677.434 168.825 677.23 171.727 676.755 174.65C675.804 180.495 673.752 186.495 671.978 190.569L671.978 190.57C669.633 195.941 664.587 204.743 659.275 214.008L659.03 214.435C653.618 223.876 647.961 233.763 644.558 241.061C644.558 241.062 644.558 241.063 644.557 241.063L638.449 254.492L638.441 254.508L638.433 254.523C636.583 257.923 633.361 266.157 630.421 274.551C627.481 282.943 624.853 291.41 624.173 295.273C623.992 296.318 623.716 298.907 623.381 302.043C623.21 303.642 623.024 305.384 622.828 307.135C622.539 309.717 622.229 312.311 621.914 314.475C621.603 316.62 621.28 318.394 620.958 319.303L620.941 319.35L620.915 319.393C619.442 321.84 617.978 323.706 616.512 324.965C615.043 326.226 613.541 326.902 612.009 326.902H611.982L611.954 326.899L601.443 325.744C601.442 325.743 601.441 325.743 601.439 325.743C598.865 325.482 596.066 326.219 593.904 327.696C591.067 329.64 590.356 332.318 590.59 333.635C591.252 337.275 591.959 340.96 593.472 344.309L593.473 344.312C596.39 350.895 598.738 361.41 600.498 370.437C601.083 373.437 601.605 376.283 602.062 378.773C602.293 380.034 602.507 381.204 602.705 382.256C602.999 383.823 603.255 385.126 603.472 386.087C603.581 386.568 603.679 386.956 603.765 387.245C603.808 387.389 603.847 387.503 603.881 387.588C603.897 387.631 603.912 387.663 603.923 387.686C603.935 387.711 603.941 387.72 603.941 387.718L603.966 387.755L603.985 387.795C605.022 390.03 606.253 391.255 607.373 391.925C608.495 392.597 609.543 392.735 610.247 392.735C613.958 392.735 616.29 389.747 617.953 385.689C618.776 383.681 619.411 381.466 619.959 379.338C620.157 378.567 620.346 377.803 620.527 377.066C620.843 375.784 621.14 374.58 621.438 373.553C626.052 357.613 631.906 349.354 640.842 345.142C645.29 343.046 650.466 341.97 656.563 341.414C662.658 340.859 669.708 340.821 677.906 340.821C680.704 340.821 683.801 340.778 687.082 340.732C694.099 340.634 701.956 340.524 709.517 340.801C720.594 341.207 731.175 342.443 737.647 345.832C748.362 351.386 755.02 362.966 757.729 380.331L757.732 380.35L757.734 380.369C757.952 383.182 758.51 386.305 759.815 388.709C761.105 391.086 763.102 392.735 766.264 392.735C768.619 392.735 770.335 391.594 771.686 389.56C773.055 387.5 774.023 384.555 774.833 381.046C775.465 378.306 775.992 375.264 776.543 372.08C776.697 371.193 776.852 370.295 777.012 369.389C777.746 365.245 778.575 360.958 779.768 356.924L779.768 356.924C780.67 353.884 781.765 351.123 782.804 348.584C782.942 348.247 783.079 347.915 783.213 347.587C784.101 345.429 784.917 343.443 785.517 341.562C786.891 337.25 787.084 333.619 784.362 330.006L784.355 329.998L784.349 329.988C783.315 328.483 782.172 327.646 780.939 327.203C779.694 326.756 778.319 326.697 776.798 326.818C775.771 326.9 774.713 327.06 773.6 327.229C773.05 327.312 772.487 327.397 771.908 327.476C770.176 327.711 768.342 327.882 766.444 327.726C766.443 327.726 766.443 327.726 766.443 327.726L766.484 327.228C759.052 326.622 756.134 316.328 749.363 290.784L644.329 154.305ZM644.329 154.305V143.03H739.559V154.306L644.329 154.305ZM714.46 329.49H715.118L714.942 328.856L698.046 268.151L684.892 202.548L684.673 201.455L684.003 202.345C675.226 213.992 663.909 232.548 654.784 252.362C645.666 272.163 638.705 293.287 638.705 310.052C638.705 318.405 640.373 323.366 644.483 326.169C646.517 327.555 649.103 328.381 652.275 328.863C655.446 329.345 659.238 329.49 663.703 329.49H714.46Z" stroke="#474A51"/>
<path d="M684.3 487.422L684.3 487.422C688.229 488.247 688.229 494.041 684.3 494.866L684.3 494.866C667.865 498.32 654.997 511.189 651.543 527.678C650.718 531.608 644.924 531.608 644.099 527.679C640.7 511.188 627.83 498.32 611.341 494.866C607.412 494.041 607.412 488.247 611.341 487.422C627.778 484.023 640.645 471.098 644.099 454.665L644.099 454.665C644.923 450.735 650.718 450.735 651.543 454.665L651.543 454.665C654.997 471.099 667.866 483.968 684.3 487.422Z" stroke="#474A51"/>
<path d="M942.769 227.693C942.769 225.945 942.769 224.191 942.734 222.436C957.268 229.86 966.507 236.719 972.976 244.441C979.561 252.3 983.308 261.09 986.824 272.379L987.786 272.11L987.301 272.23C987.786 272.11 987.786 272.11 987.786 272.11L987.786 272.108L987.784 272.101L987.777 272.071C987.771 272.045 987.761 272.005 987.748 271.952C987.738 271.906 987.725 271.851 987.71 271.786C987.69 271.7 987.666 271.597 987.639 271.477C987.546 271.058 987.412 270.439 987.253 269.638C986.936 268.036 986.52 265.711 986.123 262.822C985.33 257.044 984.619 249.015 984.945 240.016C985.589 222.201 990.292 200.662 1006.37 185.193C1006.52 185.598 1006.73 186.176 1006.99 186.917C1007.55 188.505 1008.35 190.842 1009.26 193.836C1011.1 199.823 1013.45 208.432 1015.49 218.914C1019.58 239.883 1022.43 268.328 1017.51 298.264C1012.6 328.195 999.925 359.611 972.958 386.55C946.25 413.23 905.489 435.552 844.272 447.664C904.742 393.655 942.769 315.101 942.769 227.693ZM767.014 498.408C785.818 493.893 815.275 485.433 844.04 475.576C874.389 465.175 904.037 453.197 919.567 442.633C919.609 442.7 919.654 442.775 919.703 442.856C919.971 443.301 920.349 443.95 920.786 444.76C921.66 446.38 922.765 448.64 923.693 451.202C925.565 456.363 926.66 462.584 923.943 467.304L924.785 467.835L924.789 467.837L924.789 467.837L924.79 467.836L924.795 467.828L924.819 467.794C924.84 467.764 924.873 467.719 924.917 467.658C925.005 467.538 925.139 467.359 925.318 467.13C925.677 466.672 926.218 466.012 926.942 465.214C928.389 463.616 930.567 461.466 933.48 459.261C939.214 454.922 947.793 450.379 959.265 449.432C959.253 449.726 959.229 450.137 959.179 450.65C959.07 451.781 958.839 453.407 958.35 455.376C957.371 459.313 955.362 464.614 951.236 470.052C942.997 480.913 926.247 492.413 892.14 494.581L890.417 494.69L891.932 495.518C902.719 501.417 909.031 508.757 912.645 514.61C914.453 517.538 915.587 520.096 916.267 521.917C916.608 522.828 916.835 523.554 916.976 524.05C916.992 524.103 917.006 524.153 917.019 524.201C905.473 524.196 895.961 520.42 889.296 516.604C885.903 514.662 883.252 512.712 881.451 511.249C880.55 510.518 879.863 509.909 879.401 509.484C879.171 509.271 878.997 509.105 878.881 508.992C878.824 508.936 878.78 508.893 878.752 508.865L878.721 508.833L878.713 508.826L878.711 508.824L878.711 508.824L878.709 508.826L877.973 509.497C881.768 513.955 881.825 519.248 880.9 523.49C880.438 525.608 879.734 527.446 879.144 528.755C878.995 529.086 878.854 529.382 878.726 529.64C877.854 526.381 875.695 523.48 872.608 520.902C869.096 517.97 864.351 515.426 858.819 513.214C847.756 508.791 833.449 505.66 819.312 503.449C805.169 501.237 791.169 499.942 780.707 499.2C775.476 498.829 771.127 498.596 768.087 498.456C767.708 498.439 767.351 498.423 767.014 498.408ZM1256.99 367.019C1249.5 369.849 1241.58 368.59 1235.44 366.555C1232.29 365.512 1229.63 364.272 1227.75 363.292C1226.81 362.802 1226.07 362.378 1225.56 362.077C1225.31 361.926 1225.12 361.807 1224.99 361.725C1224.92 361.684 1224.87 361.653 1224.84 361.632L1224.8 361.609L1224.8 361.604L1224.79 361.602L1224.79 361.602L1224.79 361.605L1224.22 362.421C1228.89 365.883 1231.46 371.136 1232.86 375.569C1233.56 377.78 1233.97 379.773 1234.2 381.212C1234.23 381.419 1234.26 381.614 1234.29 381.797C1229.92 376.684 1223.21 373.638 1215.43 372.018C1206.95 370.254 1197.13 370.166 1187.5 370.983C1177.86 371.801 1168.39 373.528 1160.6 375.409C1154.87 376.795 1150.03 378.269 1146.7 379.532C1183.86 346.942 1211.36 343.782 1229.59 348.773C1238.91 351.326 1245.86 356.02 1250.48 360.079C1252.78 362.108 1254.51 363.976 1255.65 365.334C1256.23 366.014 1256.65 366.565 1256.94 366.945C1256.96 366.97 1256.97 366.995 1256.99 367.019ZM1295.05 450.778C1282.24 452.585 1270.82 446.147 1262.52 439.13C1258.33 435.586 1254.96 431.911 1252.64 429.122C1251.48 427.727 1250.58 426.555 1249.97 425.733C1249.66 425.322 1249.43 424.999 1249.28 424.779C1249.2 424.669 1249.14 424.585 1249.1 424.528L1249.06 424.465L1249.05 424.45L1249.05 424.446L1249.05 424.445C1249.05 424.445 1249.05 424.445 1248.88 424.559L1249.05 424.445L1248.2 424.979C1253.5 433.917 1254.74 445.189 1254.63 454.274C1254.58 458.809 1254.2 462.781 1253.83 465.62C1253.65 466.978 1253.47 468.076 1253.34 468.85C1249.83 463.349 1243.36 459.014 1234.77 455.617C1225.58 451.98 1213.88 449.391 1200.6 447.618C1174.04 444.072 1141.07 443.781 1108.92 444.965C1076.77 446.149 1045.43 448.81 1022.12 451.174C1010.47 452.356 1000.83 453.464 994.096 454.277C991.217 454.625 988.87 454.919 987.127 455.141C1137.06 391.127 1214.05 390.1 1253.53 405.049C1273.39 412.572 1283.77 424.145 1289.2 433.812C1291.91 438.649 1293.38 443.016 1294.18 446.169C1294.58 447.746 1294.81 449.018 1294.94 449.893C1294.99 450.261 1295.03 450.558 1295.05 450.778ZM897.821 413.165L897.829 413.193L897.809 413.209L897.803 413.214L897.801 413.216C897.801 413.216 897.801 413.216 897.85 413.276L898.062 414.103H898.117H898.295L898.434 413.99L898.422 413.976C898.422 413.976 898.422 413.976 898.422 413.976C898.434 413.99 898.434 413.99 898.434 413.99L898.436 413.988L898.444 413.982L898.473 413.958L898.506 413.93C898.507 413.93 898.508 413.929 898.509 413.928C940.538 390.794 962.758 365.163 974.68 342.995C986.435 321.139 988.158 302.685 989.024 293.409L989.065 292.976L988.096 292.763C971.037 340.851 957.688 357.107 946.699 366.566C953.199 351.698 955.482 338.412 956.118 328.712C956.45 323.646 956.332 319.558 956.131 316.732C956.031 315.32 955.909 314.223 955.813 313.477C955.764 313.104 955.722 312.819 955.692 312.626C955.677 312.529 955.665 312.456 955.656 312.406L955.646 312.349L955.644 312.334L955.643 312.33L955.643 312.329C955.643 312.328 955.643 312.328 955.151 312.418L955.643 312.328L954.653 312.369C951.748 341.915 937.546 367.125 924.047 384.964C917.3 393.88 910.734 400.947 905.856 405.783C903.417 408.202 901.401 410.062 899.995 411.316C899.293 411.944 898.743 412.42 898.369 412.738C898.182 412.898 898.04 413.017 897.944 413.097C897.944 413.098 897.943 413.098 897.943 413.098C897.903 413.12 897.862 413.143 897.821 413.165ZM988.237 436.445C981.975 436.445 977.314 434.07 974.213 430.534C971.104 426.988 969.538 422.245 969.538 417.484C969.538 412.724 971.104 407.981 974.213 404.435C977.314 400.898 981.975 398.523 988.237 398.523C994.499 398.523 999.159 400.898 1002.26 404.435C1005.37 407.981 1006.94 412.724 1006.94 417.484C1006.94 422.245 1005.37 426.988 1002.26 430.534C999.159 434.07 994.499 436.445 988.237 436.445ZM1149.21 305.156C1161.48 305.156 1171.39 315.116 1171.39 327.337C1171.39 339.558 1161.43 349.518 1149.21 349.518C1136.99 349.518 1127.03 339.558 1127.03 327.337C1127.03 315.116 1136.99 305.156 1149.21 305.156ZM1018.85 362.735C1018.85 337.908 1038.99 317.818 1063.77 317.818C1088.6 317.818 1108.69 337.908 1108.69 362.735C1108.69 387.563 1088.6 407.653 1063.77 407.653C1038.94 407.653 1018.85 387.563 1018.85 362.735Z" stroke="#474A51"/>
<path d="M451.32 447.664C390.103 435.552 349.341 413.23 322.633 386.55C295.666 359.611 282.992 328.195 278.078 298.264C273.164 268.328 276.015 239.883 280.099 218.914C282.14 208.432 284.489 199.823 286.327 193.836C287.246 190.842 288.037 188.505 288.597 186.917C288.859 186.176 289.071 185.598 289.222 185.193C305.299 200.662 310.001 222.201 310.646 240.016C310.971 249.015 310.26 257.044 309.467 262.822C309.071 265.711 308.655 268.036 308.337 269.638C308.179 270.439 308.045 271.058 307.951 271.477C307.904 271.686 307.867 271.846 307.842 271.952C307.83 272.005 307.82 272.045 307.814 272.071L307.807 272.101L307.805 272.108L307.804 272.11C307.804 272.11 307.804 272.11 308.29 272.23L307.804 272.11L308.767 272.379C312.283 261.09 316.03 252.3 322.615 244.441C329.084 236.719 338.322 229.86 352.857 222.436C352.822 224.189 352.822 225.941 352.822 227.687V227.693C352.822 315.102 390.903 393.656 451.32 447.664ZM375.888 442.856C375.937 442.775 375.982 442.7 376.023 442.633C391.553 453.197 421.202 465.175 451.551 475.576C480.315 485.433 509.773 493.893 528.577 498.408C528.239 498.423 527.881 498.439 527.502 498.456C524.46 498.596 520.109 498.829 514.876 499.2C504.409 499.942 490.404 501.237 476.258 503.449C462.118 505.66 447.809 508.791 436.748 513.214C431.218 515.426 426.474 517.97 422.967 520.903C419.884 523.48 417.73 526.379 416.863 529.636C416.735 529.379 416.595 529.084 416.447 528.755C415.857 527.446 415.153 525.608 414.691 523.49C413.765 519.248 413.823 513.955 417.618 509.497L416.882 508.826L416.879 508.824L416.879 508.824L416.877 508.826L416.87 508.833L416.839 508.865L416.803 508.901C416.778 508.925 416.746 508.956 416.709 508.992C416.594 509.105 416.42 509.271 416.189 509.484C415.728 509.909 415.04 510.518 414.14 511.249C412.339 512.712 409.688 514.662 406.295 516.604C399.63 520.42 390.118 524.196 378.572 524.201C378.585 524.153 378.599 524.103 378.614 524.05C378.756 523.554 378.983 522.828 379.323 521.917C380.004 520.096 381.138 517.538 382.946 514.61C386.56 508.757 392.871 501.417 403.659 495.518L405.174 494.69L403.451 494.581C369.343 492.413 352.594 480.913 344.355 470.052C340.229 464.614 338.22 459.313 337.241 455.376C336.752 453.407 336.52 451.781 336.411 450.65C336.362 450.137 336.338 449.726 336.326 449.432C347.798 450.379 356.376 454.922 362.111 459.261C365.024 461.466 367.201 463.616 368.649 465.214C369.373 466.012 369.914 466.672 370.272 467.13C370.357 467.238 370.431 467.335 370.496 467.42C370.568 467.515 370.627 467.595 370.674 467.658C370.718 467.719 370.751 467.764 370.772 467.794L370.796 467.828L370.801 467.836L370.802 467.837L370.802 467.837C370.802 467.837 370.802 467.837 370.805 467.835L371.647 467.304C368.931 462.584 370.026 456.363 371.897 451.202C372.826 448.64 373.931 446.38 374.805 444.76C375.241 443.95 375.62 443.301 375.888 442.856ZM60.1587 366.555C54.0193 368.59 46.1137 369.849 38.6544 367.019C38.6721 366.995 38.6904 366.971 38.7094 366.945C38.9928 366.565 39.4204 366.014 39.9929 365.334C41.138 363.976 42.8617 362.108 45.1697 360.079C49.7864 356.02 56.733 351.326 66.0565 348.773C84.2957 343.78 111.805 346.944 148.988 379.569C145.66 378.298 140.78 376.809 134.987 375.409C127.201 373.528 117.731 371.801 108.095 370.983C98.463 370.166 88.6416 370.254 80.1636 372.018C72.3785 373.638 65.6687 376.684 61.3048 381.797C61.3309 381.614 61.3601 381.419 61.3931 381.212C61.6223 379.773 62.0268 377.78 62.7265 375.569C64.1293 371.136 66.7008 365.883 71.3696 362.421L70.7983 361.605L70.7966 361.602L70.7963 361.602L70.7944 361.604L70.7859 361.609L70.75 361.632C70.7177 361.653 70.6688 361.685 70.604 361.725C70.4744 361.807 70.281 361.926 70.0285 362.077C69.5235 362.378 68.7827 362.802 67.8444 363.292C65.967 364.272 63.3032 365.512 60.1587 366.555ZM47.3893 424.979L46.5439 424.445L46.6453 424.513C46.5439 424.445 46.5439 424.445 46.5438 424.445L46.5433 424.446L46.5409 424.45L46.5304 424.465L46.4872 424.528C46.4485 424.585 46.3903 424.669 46.313 424.779C46.1583 424.999 45.9272 425.322 45.6232 425.733C45.0151 426.555 44.1157 427.727 42.9537 429.122C40.6287 431.911 37.2564 435.586 33.066 439.13C24.77 446.147 13.3512 452.585 0.541296 450.778C0.56528 450.558 0.601633 450.261 0.655539 449.893C0.784043 449.018 1.01224 447.746 1.41024 446.169C2.20631 443.016 3.6811 438.649 6.39457 433.812C11.8169 424.145 22.1997 412.572 42.0646 405.049C81.5415 390.1 158.533 391.127 308.463 455.141C306.721 454.919 304.374 454.625 301.494 454.277C294.764 453.464 285.121 452.356 273.468 451.174C250.165 448.81 218.822 446.149 186.671 444.965C154.525 443.781 121.551 444.072 94.991 447.618C81.7124 449.391 70.0147 451.98 60.8182 455.617C52.2292 459.014 45.7569 463.349 42.2519 468.85C42.118 468.076 41.9429 466.978 41.7648 465.62C41.3925 462.781 41.0074 458.809 40.9561 454.274C40.8533 445.189 42.0913 433.917 47.3893 424.979ZM339.948 312.328L340.44 312.418C339.948 312.328 339.948 312.328 339.948 312.329L339.948 312.33L339.947 312.334L339.944 312.349L339.934 312.406C339.926 312.456 339.914 312.529 339.899 312.626C339.868 312.819 339.826 313.104 339.778 313.477C339.681 314.223 339.56 315.32 339.459 316.732C339.258 319.558 339.141 323.646 339.473 328.712C340.109 338.412 342.392 351.698 348.892 366.566C337.903 357.107 324.553 340.851 307.495 292.763L306.526 292.976C306.539 293.118 306.553 293.263 306.566 293.409C307.432 302.685 309.156 321.139 320.91 342.995C332.832 365.163 355.052 390.794 397.082 413.928C397.096 413.94 397.108 413.95 397.118 413.958L397.147 413.982L397.154 413.988L397.156 413.989C397.156 413.99 397.156 413.99 397.168 413.976C397.168 413.976 397.169 413.976 397.169 413.976L397.157 413.99L397.295 414.103H397.474H397.529L397.741 413.276C397.79 413.216 397.79 413.216 397.79 413.216L397.788 413.215L397.782 413.209L397.762 413.193L397.769 413.165C397.729 413.143 397.688 413.12 397.648 413.098C397.648 413.098 397.647 413.098 397.647 413.098C397.552 413.018 397.409 412.898 397.222 412.738C396.849 412.42 396.3 411.944 395.598 411.317C394.194 410.062 392.179 408.202 389.743 405.784C384.869 400.947 378.308 393.88 371.564 384.964C358.072 367.125 343.87 341.915 340.937 312.369L339.948 312.328ZM307.354 398.523C313.616 398.523 318.276 400.898 321.377 404.435C324.487 407.981 326.053 412.724 326.053 417.484C326.053 422.245 324.487 426.988 321.377 430.534C318.276 434.07 313.616 436.445 307.354 436.445C301.092 436.445 296.431 434.07 293.33 430.534C290.221 426.988 288.655 422.245 288.655 417.484C288.655 412.724 290.221 407.981 293.33 404.435C296.431 400.898 301.092 398.523 307.354 398.523ZM124.201 327.337C124.201 315.116 134.108 305.156 146.383 305.156C158.603 305.156 168.564 315.116 168.564 327.337C168.564 339.558 158.603 349.518 146.383 349.518C134.162 349.518 124.201 339.558 124.201 327.337ZM231.823 317.818C256.596 317.818 276.741 337.908 276.741 362.735C276.741 387.563 256.65 407.653 231.823 407.653C206.995 407.653 186.905 387.563 186.905 362.735C186.905 337.908 206.995 317.818 231.823 317.818Z" stroke="#474A51"/>
</svg>
